<?xml version="1.0" standalone="no"?>
<!DOCTYPE svg PUBLIC "-//W3C//DTD SVG 20010904//EN"
 "http://www.w3.org/TR/2001/REC-SVG-20010904/DTD/svg10.dtd">
<svg version="1.0" xmlns="http://www.w3.org/2000/svg"
 width="416.000000pt" height="416.000000pt" viewBox="0 0 416.000000 416.000000"
 preserveAspectRatio="xMidYMid meet">
<metadata>
Created by potrace 1.14, written by Peter Selinger 2001-2017
</metadata>
<g transform="translate(0.000000,416.000000) scale(0.100000,-0.100000)"
fill="#000000" stroke="none">
<path d="M1658 3894 c-2 -1 -75 -5 -163 -9 -207 -8 -383 -18 -540 -31 -27 -2
-81 -6 -120 -8 -38 -3 -97 -8 -130 -11 -87 -8 -153 -15 -212 -20 -29 -3 -66
-7 -81 -10 -16 -2 -53 -7 -83 -10 -79 -8 -84 -9 -108 -25 -35 -25 -27 -132 24
-320 2 -8 11 -49 20 -90 9 -41 22 -103 30 -137 8 -35 22 -93 31 -130 8 -38 18
-75 21 -83 3 -8 7 -22 8 -30 1 -8 8 -35 14 -60 6 -25 14 -56 17 -70 2 -14 9
-39 15 -57 5 -17 12 -44 15 -60 3 -15 8 -37 11 -48 4 -11 8 -24 9 -30 1 -5 10
-39 19 -75 9 -36 19 -72 21 -80 73 -291 120 -451 177 -602 15 -38 24 -68 20
-68 -3 0 0 -6 6 -13 6 -8 22 -48 36 -91 23 -66 25 -86 19 -144 -16 -150 -9
-338 18 -437 5 -22 12 -51 15 -65 2 -13 7 -27 11 -30 4 -3 8 -14 10 -25 5 -40
114 -244 168 -316 64 -85 210 -230 275 -274 24 -16 46 -33 47 -37 2 -5 10 -8
18 -8 8 0 14 -4 14 -8 0 -12 192 -107 275 -136 74 -26 186 -55 245 -62 19 -2
58 -8 85 -12 75 -12 287 -4 365 13 14 3 39 8 55 10 172 30 418 142 570 258 60
46 198 187 220 225 11 17 22 32 26 32 4 0 12 14 19 30 7 16 16 30 21 30 5 0 9
6 9 14 0 7 7 19 15 26 8 7 12 16 9 21 -3 5 -1 9 3 9 8 0 55 86 51 93 0 1 9 21
21 44 12 24 19 43 17 43 -3 0 2 17 11 37 8 21 17 47 19 58 2 11 6 31 9 44 19
99 23 223 10 336 -4 39 -7 86 -6 106 1 31 54 183 90 264 28 61 138 374 155
440 1 6 9 30 16 55 7 25 14 50 15 55 2 6 12 43 24 83 13 41 23 82 24 93 1 10
4 19 8 19 5 0 19 54 24 95 0 6 9 33 18 60 18 54 65 225 73 265 3 14 11 50 19
80 8 30 16 69 19 85 2 17 5 30 6 30 1 0 3 7 5 15 1 8 13 53 24 100 21 82 35
141 47 205 9 42 10 48 17 65 3 8 8 39 10 68 3 50 2 54 -25 68 -15 8 -30 14
-33 14 -3 0 -6 0 -7 1 -14 4 -67 11 -188 25 -64 8 -114 14 -155 20 -22 3 -60
7 -85 9 -25 2 -45 4 -45 5 0 1 -25 3 -55 5 -69 4 -170 13 -235 20 -128 15
-242 23 -550 41 -101 5 -913 13 -917 8z"/>
</g>
</svg>
